<svg xmlns="http://www.w3.org/2000/svg" viewBox="-0.25 -0.25 24 24" height="24" width="24"><defs></defs><path d="M16.954 11.995v-4.406a1.469 1.469 0 0 1 2.938 0v9.792a4.896 4.896 0 0 1 -4.896 4.896H11.73a4.903 4.903 0 0 1 -4.135 -2.273C5.909 17.348 3.819 12.974 3.819 12.974a1.175 1.175 0 0 1 1.724 -1.567l2.601 3.035v-9.792a1.469 1.469 0 0 1 2.938 0v-1.958a1.469 1.469 0 0 1 2.938 0v1.958a1.469 1.469 0 1 1 2.938 0v7.344Z" fill="#d09cfa" stroke-width="0.5"></path><path d="M11.079 10.246V4.651a1.469 1.469 0 0 0 -2.938 0v6.472a12.791 12.791 0 0 1 2.938 -0.877Z" fill="#d09cfa" stroke-width="0.5"></path><path d="M13.527 10.036a13.033 13.033 0 0 1 6.365 1.576V7.589a1.469 1.469 0 0 0 -2.938 -0.01V4.651a1.469 1.469 0 1 0 -2.938 0v-1.958a1.469 1.469 0 0 0 -2.938 0v7.553a14.341 14.341 0 0 1 2.448 -0.21Z" fill="#d09cfa" stroke-width="0.5"></path><path d="M11.08 4.651v-1.958a1.469 1.469 0 0 1 2.938 0v1.958" fill="none" stroke="#00303e" stroke-linecap="round" stroke-linejoin="round" stroke-width="0.5"></path><path d="M14.018 10.526v-5.875a1.469 1.469 0 1 1 2.938 0v2.938" fill="none" stroke="#00303e" stroke-linecap="round" stroke-linejoin="round" stroke-width="0.5"></path><path d="M16.954 11.995v-4.406a1.469 1.469 0 0 1 2.938 0v9.792a4.896 4.896 0 0 1 -4.896 4.896H11.73a4.903 4.903 0 0 1 -4.135 -2.273C5.909 17.348 3.819 12.974 3.819 12.974a1.175 1.175 0 0 1 1.724 -1.567l2.601 3.035v-9.792a1.469 1.469 0 0 1 2.938 0v5.875" fill="none" stroke="#00303e" stroke-linecap="round" stroke-linejoin="round" stroke-width="0.5"></path></svg>