<svg xmlns="http://www.w3.org/2000/svg" fill="none" viewBox="-0.5 -0.5 128 128" height="128" width="128"><path fill="#ffef5e" d="m119.914 35.084 -22.437 22.437 -22.437 -22.437 22.437 -22.437a15.875 15.875 0 0 1 22.437 22.437Z" stroke-width="1"></path><path fill="#ffef5e" d="M75.041 35.084 15.986 94.139l22.437 22.437 59.055 -59.055 -22.437 -22.437Z" stroke-width="1"></path><path stroke="#191919" stroke-linecap="round" stroke-linejoin="round" d="m97.324 12.753 -1.725 -1.725a10.583 10.583 0 0 0 -14.965 0l-20.579 20.579" stroke-width="1"></path><path fill="#e3e3e3" d="M38.423 116.575 2.863 129.646l13.123 -35.507 22.437 22.437Z" stroke-width="1"></path><path fill="#fff9bf" d="m119.803 12.965 -33.443 33.443 -11.324 -11.324 22.437 -22.437a15.875 15.875 0 0 1 22.225 0.159c0.053 0.053 0.106 0.106 0.106 0.159Z" stroke-width="1"></path><path fill="#fff9bf" d="M75.036 35.084 15.981 94.139l11.324 11.324L86.36 46.408l-11.324 -11.324Z" stroke-width="1"></path><path fill="#ffffff" d="M27.305 105.463 3.281 129.487l-0.423 0.159 13.123 -35.507 11.324 11.324Z" stroke-width="1"></path><path stroke="#191919" stroke-linecap="round" stroke-linejoin="round" d="m119.914 35.084 -22.437 22.437 -22.437 -22.437 22.437 -22.437a15.875 15.875 0 0 1 22.437 22.437v0Z" stroke-width="1"></path><path stroke="#191919" stroke-linecap="round" stroke-linejoin="round" d="M75.041 35.084 15.986 94.139l22.437 22.437 59.055 -59.055 -22.437 -22.437Z" stroke-width="1"></path><path stroke="#191919" stroke-linecap="round" stroke-linejoin="round" d="M38.423 116.575 2.863 129.646l13.123 -35.507 22.437 22.437Z" stroke-width="1"></path></svg>