<svg xmlns="http://www.w3.org/2000/svg" viewBox="-0.25 -0.25 24 24" height="24" width="24"><defs></defs><path d="m22.189 5.513 -4.152 4.152 -4.152 -4.152 4.152 -4.152a2.938 2.938 0 0 1 4.152 4.152Z" fill="#d09cfa" stroke-width="0.5"></path><path d="M2.957 16.44 13.887 5.513l4.152 4.152 -10.928 10.928Z" fill="#d09cfa" stroke-width="0.5"></path><path d="m18.009 1.381 -0.319 -0.319a1.958 1.958 0 0 0 -2.769 0l-3.808 3.808" fill="none" stroke="#00303e" stroke-linecap="round" stroke-linejoin="round" stroke-width="0.5"></path><path d="M7.11 20.592 0.53 23.01l2.428 -6.57 4.152 4.152z" fill="#dfccfb" stroke-width="0.5"></path><path d="m22.168 1.42 -6.188 6.188 -2.095 -2.095 4.152 -4.152a2.938 2.938 0 0 1 4.112 0.029c0.01 0.01 0.02 0.02 0.02 0.029Z" fill="#dfccfb" stroke-width="0.5"></path><path d="M2.957 16.44 13.885 5.513l2.095 2.095L5.053 18.536Z" fill="#dfccfb" stroke-width="0.5"></path><path d="M5.053 18.536 0.607 22.981l-0.078 0.029 2.428 -6.57 2.095 2.095z" fill="#ffffff" stroke-width="0.5"></path><path d="m22.189 5.513 -4.152 4.152 -4.152 -4.152 4.152 -4.152a2.938 2.938 0 0 1 4.152 4.152Z" fill="none" stroke="#00303e" stroke-linecap="round" stroke-linejoin="round" stroke-width="0.5"></path><path d="M2.957 16.44 13.887 5.513l4.152 4.152 -10.928 10.928Z" fill="none" stroke="#00303e" stroke-linecap="round" stroke-linejoin="round" stroke-width="0.5"></path><path d="M7.11 20.592 0.53 23.01l2.428 -6.57 4.152 4.152z" fill="none" stroke="#00303e" stroke-linecap="round" stroke-linejoin="round" stroke-width="0.5"></path></svg>