<svg xmlns="http://www.w3.org/2000/svg" fill="none" viewBox="-0.5 -0.5 128 128" height="128" width="128"><path fill="#FFEF5E" d="M63.5 124.354c33.607 0 60.854 -27.247 60.854 -60.854S97.107 2.646 63.5 2.646 2.646 29.893 2.646 63.5 29.893 124.354 63.5 124.354Z" stroke-width="1"></path><path fill="#FFF9BF" d="M63.5 23.812a65.278 65.278 0 0 1 60.822 41.587c0 -0.635 0.032 -1.265 0.032 -1.9a60.854 60.854 0 1 0 -121.677 1.9A65.278 65.278 0 0 1 63.5 23.812Z" stroke-width="1"></path><path stroke="#191919" stroke-linecap="round" stroke-linejoin="round" d="M31.75 82.021a34.396 34.396 0 0 0 63.5 0" stroke-width="1"></path><path stroke="#191919" stroke-linecap="round" stroke-linejoin="round" d="M63.5 124.354c33.607 0 60.854 -27.247 60.854 -60.854S97.107 2.646 63.5 2.646 2.646 29.893 2.646 63.5 29.893 124.354 63.5 124.354Z" stroke-width="1"></path><path fill="#FF808C" stroke="#191919" stroke-linecap="round" stroke-linejoin="round" d="M37.798 60.854 23.622 46.069a8.393 8.393 0 0 1 -1.587 -9.684v0a8.393 8.393 0 0 1 13.436 -2.175l2.312 2.312 2.318 -2.312a8.387 8.387 0 0 1 14.203 7.271c-0.286 1.741 -1.111 3.344 -2.36 4.588L37.798 60.854Z" stroke-width="1"></path><path fill="#FF808C" stroke="#191919" stroke-linecap="round" stroke-linejoin="round" d="m89.202 60.854 14.176 -14.79a8.393 8.393 0 0 0 1.587 -9.684v0a8.393 8.393 0 0 0 -13.436 -2.175l-2.312 2.312 -2.318 -2.312a8.387 8.387 0 0 0 -13.43 2.175v0a8.393 8.393 0 0 0 1.587 9.684l14.145 14.79Z" stroke-width="1"></path></svg>