<svg xmlns="http://www.w3.org/2000/svg" viewBox="-0.25 -0.25 24 24" height="24" width="24"><defs></defs><path d="M23.01 1.469v14.688h-5.875a0.979 0.979 0 0 0 -0.979 0.979v5.875h-14.688a0.979 0.979 0 0 1 -0.979 -0.979v-20.563a0.979 0.979 0 0 1 0.979 -0.979h20.563a0.979 0.979 0 0 1 0.979 0.979Z" fill="#d09cfa" stroke-width="0.5"></path><path d="m23.01 16.156 -6.854 6.854v-5.875a0.979 0.979 0 0 1 0.979 -0.979Z" fill="#d09cfa" stroke-width="0.5"></path><path d="M23.01 1.469v14.688h-5.875a0.979 0.979 0 0 0 -0.979 0.979v5.875h-14.688a0.979 0.979 0 0 1 -0.979 -0.979v-20.563a0.979 0.979 0 0 1 0.979 -0.979h20.563a0.979 0.979 0 0 1 0.979 0.979Z" fill="none" stroke="#00303e" stroke-linecap="round" stroke-linejoin="round" stroke-width="0.5"></path><path d="m23.01 16.156 -6.854 6.854v-5.875a0.979 0.979 0 0 1 0.979 -0.979Z" fill="none" stroke="#00303e" stroke-linecap="round" stroke-linejoin="round" stroke-width="0.5"></path></svg>