<svg xmlns="http://www.w3.org/2000/svg" fill="none" viewBox="-0.5 -0.5 128 128" height="128" width="128"><path fill="#FFEF5E" d="M124.354 7.937v79.375h-31.75a5.292 5.292 0 0 0 -5.292 5.292v31.75h-79.375a5.292 5.292 0 0 1 -5.292 -5.292v-111.125a5.292 5.292 0 0 1 5.292 -5.292h111.125a5.292 5.292 0 0 1 5.292 5.292Z" stroke-width="1"></path><path fill="#FFBC44" d="m124.354 87.312 -37.042 37.042v-31.75a5.292 5.292 0 0 1 5.292 -5.292h31.75Z" stroke-width="1"></path><path stroke="#191919" stroke-linecap="round" stroke-linejoin="round" d="M124.354 7.937v79.375h-31.75a5.292 5.292 0 0 0 -5.292 5.292v31.75h-79.375a5.292 5.292 0 0 1 -5.292 -5.292v-111.125a5.292 5.292 0 0 1 5.292 -5.292h111.125a5.292 5.292 0 0 1 5.292 5.292Z" stroke-width="1"></path><path stroke="#191919" stroke-linecap="round" stroke-linejoin="round" d="m124.354 87.312 -37.042 37.042v-31.75a5.292 5.292 0 0 1 5.292 -5.292h31.75Z" stroke-width="1"></path></svg>