<svg xmlns="http://www.w3.org/2000/svg" viewBox="-0.25 -0.25 24 24" height="24" width="24"><defs></defs><path d="M23.01 1.469v15.667H0.49v-15.667a0.979 0.979 0 0 1 0.979 -0.979h20.563a0.979 0.979 0 0 1 0.979 0.979Z" fill="#d09cfa" stroke-width="0.5"></path><path d="M22.784 0.868A0.963 0.963 0 0 0 22.031 0.49h-20.563a0.979 0.979 0 0 0 -0.979 0.979v15.667h6.026Z" fill="#dfccfb" stroke-width="0.5"></path><path d="M23.01 1.469v15.667H0.49v-15.667a0.979 0.979 0 0 1 0.979 -0.979h20.563a0.979 0.979 0 0 1 0.979 0.979Z" fill="none" stroke="#00303e" stroke-linecap="round" stroke-linejoin="round" stroke-width="0.5"></path><path d="M3.427 17.135s1.958 -4.896 4.406 -4.896 4.406 2.938 4.406 2.938l2.952 -5.06a1.642 1.642 0 0 1 2.887 0.098L21.542 17.135" fill="#d09cfa" stroke-width="0.5"></path><path d="M23.01 17.135v4.896a0.979 0.979 0 0 1 -0.979 0.979h-20.563a0.979 0.979 0 0 1 -0.979 -0.979v-4.896Z" fill="#ffffff" stroke-width="0.5"></path><path d="M9.302 3.427a2.448 2.448 0 0 0 -2.409 2.056 1.469 1.469 0 1 0 -0.529 2.84h2.938a2.448 2.448 0 0 0 0 -4.896Z" fill="#ffffff" stroke-width="0.5"></path><path d="M3.427 17.135s1.958 -4.896 4.406 -4.896 4.406 2.938 4.406 2.938l2.952 -5.06a1.642 1.642 0 0 1 2.887 0.098L21.542 17.135" fill="none" stroke="#00303e" stroke-linecap="round" stroke-linejoin="round" stroke-width="0.5"></path><path d="M23.01 17.135v4.896a0.979 0.979 0 0 1 -0.979 0.979h-20.563a0.979 0.979 0 0 1 -0.979 -0.979v-4.896Z" fill="none" stroke="#00303e" stroke-linecap="round" stroke-linejoin="round" stroke-width="0.5"></path><path d="M9.302 3.427a2.448 2.448 0 0 0 -2.409 2.056 1.469 1.469 0 1 0 -0.529 2.84h2.938a2.448 2.448 0 0 0 0 -4.896Z" fill="none" stroke="#00303e" stroke-linecap="round" stroke-linejoin="round" stroke-width="0.5"></path></svg>