<svg xmlns="http://www.w3.org/2000/svg" fill="none" viewBox="-0.5 -0.5 128 128" height="128" width="128"><path fill="#66E1FF" d="M124.354 13.229v91.281a25.157 25.157 0 0 0 -41.54 -13.282A46.291 46.291 0 0 0 2.646 106.627V13.229a10.615 10.615 0 0 1 10.583 -10.583h100.542a10.615 10.615 0 0 1 10.583 10.583Z" stroke-width="1"></path><path fill="#C2F3FF" d="M113.771 2.646h-100.542a10.615 10.615 0 0 0 -10.583 10.583v93.398a46.339 46.339 0 0 1 42.534 -32.475L116.337 3A10.287 10.287 0 0 0 113.771 2.646Z" stroke-width="1"></path><path stroke="#191919" stroke-linecap="round" stroke-linejoin="round" d="M124.354 13.229v91.281a25.157 25.157 0 0 0 -41.54 -13.282A46.291 46.291 0 0 0 2.646 106.627V13.229a10.615 10.615 0 0 1 10.583 -10.583h100.542a10.615 10.615 0 0 1 10.583 10.583v0Z" stroke-width="1"></path><path fill="#FFEF5E" d="M87.312 52.917a13.229 13.229 0 1 0 0 -26.458 13.229 13.229 0 0 0 0 26.458Z" stroke-width="1"></path><path stroke="#191919" stroke-linecap="round" stroke-linejoin="round" d="M87.312 15.875v-2.646" stroke-width="1"></path><path stroke="#191919" stroke-linecap="round" stroke-linejoin="round" d="m70.474 22.849 -1.873 -1.873" stroke-width="1"></path><path stroke="#191919" stroke-linecap="round" stroke-linejoin="round" d="M63.5 39.687h-2.646" stroke-width="1"></path><path stroke="#191919" stroke-linecap="round" stroke-linejoin="round" d="m70.474 56.526 -1.873 1.873" stroke-width="1"></path><path stroke="#191919" stroke-linecap="round" stroke-linejoin="round" d="M87.312 63.5v2.646" stroke-width="1"></path><path stroke="#191919" stroke-linecap="round" stroke-linejoin="round" d="m104.151 56.526 1.873 1.873" stroke-width="1"></path><path stroke="#191919" stroke-linecap="round" stroke-linejoin="round" d="M111.125 39.687h2.646" stroke-width="1"></path><path stroke="#191919" stroke-linecap="round" stroke-linejoin="round" d="m104.151 22.849 1.873 -1.873" stroke-width="1"></path><path fill="#78EB7B" d="M124.354 104.51v9.26a10.615 10.615 0 0 1 -10.583 10.583h-100.542a10.615 10.615 0 0 1 -10.583 -10.583v-7.144a46.291 46.291 0 0 1 80.169 -15.399 25.162 25.162 0 0 1 41.54 13.282Z" stroke-width="1"></path><path stroke="#191919" stroke-linecap="round" stroke-linejoin="round" d="M124.354 104.51v9.26a10.615 10.615 0 0 1 -10.583 10.583h-100.542a10.615 10.615 0 0 1 -10.583 -10.583v-7.144a46.291 46.291 0 0 1 80.169 -15.399 25.162 25.162 0 0 1 41.54 13.282v0Z" stroke-width="1"></path><path stroke="#191919" stroke-linecap="round" stroke-linejoin="round" d="M90.011 103.611a44.397 44.397 0 0 0 -7.197 -12.382" stroke-width="1"></path><path stroke="#191919" stroke-linecap="round" stroke-linejoin="round" d="M87.312 52.917a13.229 13.229 0 1 0 0 -26.458 13.229 13.229 0 0 0 0 26.458Z" stroke-width="1"></path></svg>