<svg xmlns="http://www.w3.org/2000/svg" viewBox="-0.5 -0.5 24 24" height="24" width="24"><path d="M16.474 10.542A6.009 6.009 0 0 0 12.305 0.24H4.121a1.198 1.198 0 0 0 0 2.396h0.958a0.24 0.24 0 0 1 0.249 0.24v17.25a0.24 0.24 0 0 1 -0.24 0.24h-0.958a1.198 1.198 0 0 0 0 2.396h9.583A6.459 6.459 0 0 0 16.474 10.542Zm-4.169 -7.906a3.603 3.603 0 0 1 0 7.207H7.964a0.24 0.24 0 0 1 -0.24 -0.259V2.875a0.24 0.24 0 0 1 0.24 -0.24Zm1.361 17.729H7.964a0.24 0.24 0 0 1 -0.24 -0.24v-7.667a0.24 0.24 0 0 1 0.24 -0.24h5.702a4.063 4.063 0 0 1 0 8.127Z" fill="#000000" stroke-width="1"></path></svg>