<svg xmlns="http://www.w3.org/2000/svg" fill="none" viewBox="-0.5 -0.5 48 48" height="48" width="48"><path stroke="#191919" stroke-linecap="round" stroke-linejoin="round" d="M0.979 12.743h45.042" stroke-width="1"></path><path fill="#f85454" d="M40.146 12.729v29.375a3.917 3.917 0 0 1 -3.917 3.917h-25.458a3.917 3.917 0 0 1 -3.917 -3.917v-29.375h33.292Z" stroke-width="1"></path><path fill="#f85454" d="M40.146 12.729h-33.292v5.875h33.292v-5.875Z" stroke-width="1"></path><path stroke="#191919" stroke-linecap="round" stroke-linejoin="round" d="M40.146 12.729v29.375a3.917 3.917 0 0 1 -3.917 3.917h-25.458a3.917 3.917 0 0 1 -3.917 -3.917v-29.375h33.292Z" stroke-width="1"></path><path fill="#f85454" stroke="#191919" stroke-linecap="round" stroke-linejoin="round" d="M4.896 12.729v-1.958a3.917 3.917 0 0 1 3.917 -3.917h29.375a3.917 3.917 0 0 1 3.917 3.917v1.958h-37.208Z" stroke-width="1"></path><path stroke="#191919" stroke-linecap="round" stroke-linejoin="round" d="M17.625 6.854a5.875 5.875 0 1 1 11.75 0" stroke-width="1"></path><path stroke="#191919" stroke-linecap="round" stroke-linejoin="round" d="M23.5 19.583v18.604" stroke-width="1"></path><path stroke="#191919" stroke-linecap="round" stroke-linejoin="round" d="M32.313 19.583v18.604" stroke-width="1"></path><path stroke="#191919" stroke-linecap="round" stroke-linejoin="round" d="M14.688 19.583v18.604" stroke-width="1"></path></svg>