<svg xmlns="http://www.w3.org/2000/svg" viewBox="-0.5 -0.5 24 24" height="24" width="24"><defs></defs><path d="m20.125 4.313 -1.737 16.492A1.917 1.917 0 0 1 16.483 22.521H6.517a1.917 1.917 0 0 1 -1.906 -1.716L2.875 4.313Z" fill="#e5b8f4" stroke-width="1"></path><path d="m19.822 7.188 0.303 -2.875 -17.25 0 0.303 2.875 16.644 0z" fill="#c147e9" stroke-width="1"></path><path d="m20.125 4.313 -1.737 16.492A1.917 1.917 0 0 1 16.483 22.521H6.517a1.917 1.917 0 0 1 -1.906 -1.716L2.875 4.313Z" fill="none" stroke="#00303e" stroke-linecap="round" stroke-linejoin="round" stroke-width="1"></path><path d="m0.479 4.313 22.042 0" fill="none" stroke="#00303e" stroke-linecap="round" stroke-linejoin="round" stroke-width="1"></path><path d="M7.188 4.313v-2.875a0.958 0.958 0 0 1 0.958 -0.958h6.708a0.958 0.958 0 0 1 0.958 0.958v2.875" fill="none" stroke="#00303e" stroke-linecap="round" stroke-linejoin="round" stroke-width="1"></path><path d="m11.5 8.625 0 10.063" fill="none" stroke="#00303e" stroke-linecap="round" stroke-linejoin="round" stroke-width="1"></path><path d="M15.813 8.625 15.333 18.688" fill="none" stroke="#00303e" stroke-linecap="round" stroke-linejoin="round" stroke-width="1"></path><path d="M7.188 8.625 7.667 18.688" fill="none" stroke="#00303e" stroke-linecap="round" stroke-linejoin="round" stroke-width="1"></path></svg>