<svg xmlns="http://www.w3.org/2000/svg" viewBox="-0.5 -0.5 24 24" height="24" width="24"><g><path d="M21.563 20.365h-20.125a1.198 1.198 0 0 0 0 2.396h20.125a1.198 1.198 0 0 0 0 -2.396Z" fill="#000000" stroke-width="1"></path><path d="M1.917 2.635h1.284a0.24 0.24 0 0 1 0.24 0.24v8.165a8.06 8.06 0 0 0 16.119 0V2.875a0.24 0.24 0 0 1 0.24 -0.24H21.083a1.198 1.198 0 0 0 0 -2.396h-5.463a1.198 1.198 0 0 0 0 2.396h1.303a0.24 0.24 0 0 1 0.24 0.24v8.165a5.664 5.664 0 0 1 -11.328 0V2.875a0.24 0.24 0 0 1 0.24 -0.24H7.379a1.198 1.198 0 0 0 0 -2.396H1.917a1.198 1.198 0 0 0 0 2.396Z" fill="#000000" stroke-width="1"></path></g></svg>